<!-- Generator: Adobe Illustrator 23.0.1, SVG Export Plug-In  -->
<svg version="1.1" xmlns="http://www.w3.org/2000/svg" xmlns:xlink="http://www.w3.org/1999/xlink" viewBox="0 0 229.5 73.97" xml:space="preserve">
<style type="text/css">.st0{fill:#FFFFFF;} </style>
<g>
	<g>
		<path class="st0" d="M59.36,61.85c-12.71,11.47-32.03,11.47-44.74,0c-0.87-0.79-1.71-1.62-2.49-2.49
			C-0.08,45.48,1.28,24.33,15.16,12.13c12.64-11.11,31.56-11.11,44.2,0l-4.98,4.98C43.39,7.5,26.7,8.61,17.09,19.59
			s-8.5,27.67,2.48,37.28c9.96,8.72,24.84,8.72,34.8,0c0.88-0.77,1.72-1.61,2.49-2.49l-2.5-2.51l-4.99-5l-2.43-2.43l-1.24,1.24
			c-0.42,0.42-0.86,0.8-1.33,1.15c-4.36,3.29-10.37,3.29-14.73,0c-0.95-0.71-1.78-1.55-2.49-2.49c-3.29-4.36-3.29-10.37,0-14.73
			c0.71-0.95,1.55-1.78,2.49-2.49c4.36-3.29,10.38-3.29,14.74,0c0.95,0.71,1.78,1.55,2.49,2.49l2.52-2.52
			c-0.74-0.92-1.57-1.76-2.49-2.49c-5.78-4.61-13.99-4.61-19.77,0c-0.92,0.74-1.76,1.57-2.49,2.49c-5.4,6.89-4.2,16.85,2.69,22.26
			c5.74,4.5,13.81,4.51,19.55,0.02l5,4.99c-8.56,7.36-21.21,7.36-29.77,0c-0.89-0.77-1.73-1.6-2.49-2.49
			c-7.36-8.56-7.36-21.21,0-29.77c0.77-0.89,1.6-1.73,2.49-2.49c9.6-8.21,24.04-7.09,32.26,2.5l2.5-2.5l4.98-4.98l2.51-2.51
			c-0.79-0.87-1.62-1.7-2.49-2.49c-14.11-12.82-35.65-12.82-49.76,0c-0.87,0.79-1.7,1.62-2.49,2.49
			c-12.82,14.11-12.82,35.65,0,49.76c0.79,0.87,1.62,1.7,2.49,2.49c14.11,12.82,35.64,12.82,49.75,0c0.87-0.79,1.7-1.62,2.49-2.49
			l-2.51-2.51L59.36,61.85z"/>
		<path class="st0" d="M119.77,21.14c-8.75,0-15.85,7.1-15.85,15.85s7.1,15.85,15.85,15.85s15.85-7.1,15.85-15.85
			S128.52,21.14,119.77,21.14 M119.77,24.66c6.81,0,12.33,5.52,12.33,12.33s-5.52,12.33-12.33,12.33c-6.81,0-12.33-5.52-12.33-12.33
			S112.96,24.66,119.77,24.66"/>
		<path class="st0" d="M97.91,44.36c-0.71,0.94-1.55,1.78-2.49,2.49c-5.47,4.06-13.19,2.92-17.25-2.54
			c-1.57-2.12-2.43-4.68-2.43-7.32l0,0c0.01-6.81,5.54-12.32,12.35-12.31c3.86,0.01,7.5,1.82,9.82,4.91l2.48-2.54
			c-5.5-6.81-15.48-7.87-22.29-2.37c-3.72,3-5.88,7.52-5.89,12.3l0,0c0.04,8.75,7.16,15.82,15.92,15.79
			c4.77-0.02,9.27-2.18,12.26-5.89L97.91,44.36z"/>
		<path class="st0" d="M164.82,44.36c-0.71,0.94-1.55,1.78-2.49,2.49c-5.48,4.05-13.2,2.89-17.24-2.59
			c-1.56-2.11-2.4-4.66-2.41-7.27l0,0c0.01-6.81,5.54-12.32,12.35-12.31c3.86,0.01,7.5,1.82,9.82,4.91l2.48-2.54
			c-5.5-6.81-15.48-7.87-22.29-2.37c-3.72,3-5.88,7.52-5.89,12.3l0,0c0.04,8.75,7.16,15.82,15.92,15.79
			c4.77-0.02,9.27-2.18,12.26-5.89L164.82,44.36z"/>
		<path class="st0" d="M219.69,35.54l-2.91-0.34c-4.74-0.56-7.36-2.36-7.36-5.09c0-3.28,3.06-5.48,7.73-5.46
			c3.75,0.01,7.3,1.72,9.63,4.66l0.2,0.26l2.51-2.52l-0.18-0.22c-3.01-3.61-7.46-5.69-12.16-5.7c-7.05,0.06-11.24,3.69-11.24,9.2
			c0,4.64,3.25,7.56,9.16,8.23l3.08,0.35c4.98,0.55,7.72,2.1,7.72,4.87c0,3.3-4.4,5.42-8.73,5.53c-3.83-0.03-7.44-1.82-9.79-4.84
			l-0.06-0.08l-2.52,2.51l0.05,0.07c3,3.73,7.54,5.89,12.33,5.87c5.35,0,12.22-2.91,12.22-9.36c0-5.79-5.28-7.4-9.69-7.93"/>
		<path class="st0" d="M196.08,22.76V39.3c0,7.8-5.18,9.85-9.96,10.01c-4.77-0.16-9.99-2.21-9.99-10.01V22.76h-3.52v16.8
			c0,9.76,7.35,13.28,13.51,13.28l0,0c6.16,0,13.48-3.52,13.48-13.26V22.76H196.08z"/>
		<g>
			<path class="st0" d="M59.36,61.85c-12.71,11.47-32.03,11.47-44.74,0c-0.87-0.79-1.71-1.62-2.49-2.49
				C-0.08,45.48,1.28,24.33,15.16,12.13c12.64-11.11,31.56-11.11,44.2,0l-4.98,4.98C43.39,7.5,26.7,8.61,17.09,19.59
				s-8.5,27.67,2.48,37.28c9.96,8.72,24.84,8.72,34.8,0c0.88-0.77,1.72-1.61,2.49-2.49l-2.51-2.51l-4.99-5l-2.43-2.43l-1.24,1.24
				c-0.42,0.42-0.86,0.8-1.33,1.15c-4.36,3.29-10.37,3.29-14.73,0c-0.95-0.71-1.78-1.55-2.49-2.49c-3.29-4.36-3.29-10.37,0-14.73
				c0.71-0.95,1.55-1.78,2.49-2.49c4.36-3.29,10.38-3.29,14.74,0c0.95,0.71,1.78,1.55,2.49,2.49l2.52-2.52
				c-0.74-0.92-1.57-1.76-2.49-2.49c-5.78-4.61-13.99-4.61-19.77,0c-0.92,0.74-1.76,1.57-2.49,2.49
				c-5.41,6.88-4.23,16.85,2.65,22.26c5.75,4.52,13.84,4.53,19.59,0.01l5,4.99c-8.56,7.36-21.21,7.36-29.77,0
				c-0.89-0.77-1.73-1.6-2.49-2.49c-7.36-8.56-7.36-21.21,0-29.77c0.77-0.89,1.6-1.73,2.49-2.49c9.6-8.21,24.04-7.09,32.26,2.5
				l2.5-2.5l4.98-4.98l2.51-2.51c-0.79-0.87-1.62-1.7-2.49-2.49c-14.11-12.82-35.65-12.82-49.76,0c-0.87,0.79-1.7,1.62-2.49,2.49
				c-12.82,14.11-12.82,35.65,0,49.76c0.79,0.87,1.62,1.7,2.49,2.49c14.11,12.82,35.64,12.82,49.75,0c0.87-0.79,1.7-1.62,2.49-2.49
				l-2.51-2.51L59.36,61.85z"/>
		</g>
	</g>
</g>
</svg>
