<svg version="1.1" xmlns="http://www.w3.org/2000/svg" xmlns:xlink="http://www.w3.org/1999/xlink" viewBox="0 0 440 215.87" xml:space="preserve">
  <style type="text/css"> .st0{fill:#FE8102;} .st1{fill:#EFDCBB;} .st2{fill:#606060;} .st3{fill:#FFFFFF;} </style>
  <path d="M28.42,139.75C10.36,123.85,0,100.94,0,76.89C0,44.02,19.37,14.04,49.34,0.52c2.97-1.34,6.47-0.02,7.81,2.95
    c1.34,2.97,0.02,6.47-2.95,7.81C28.44,22.9,11.8,48.65,11.8,76.89c0,17.98,6.74,35.23,18.72,48.4L78.48,23.45
    c0.97-2.07,3.05-3.39,5.34-3.39s4.36,1.32,5.34,3.39l47.9,101.71c11.91-13.16,18.61-30.36,18.61-48.28
    c0-28.24-16.64-53.99-42.39-65.61c-2.97-1.34-4.29-4.83-2.95-7.8c1.34-2.97,4.83-4.29,7.8-2.95
    c29.97,13.52,49.34,43.5,49.34,76.36c0,23.98-10.31,46.85-28.29,62.75c-1.39,1.23-6.11,4.91-6.11,4.91s-2.35-5.14-3.14-6.82
    L83.82,39.81l-46.16,98.03c-0.79,1.68-3.26,6.71-3.26,6.71S29.51,140.71,28.42,139.75z"/>
  <path class="st0" d="M34.32,144.49c-0.53-0.42-3.69-2.9-5.24-4.18C30.77,141.76,32.51,143.16,34.32,144.49z"/>
  <path class="st0" d="M133.21,144.45c1.75-1.28,3.43-2.64,5.07-4.05C136.6,141.79,133.82,143.97,133.21,144.45z"/>
  <path class="st0" d="M129.93,137.73l-12.67-26.9c-2.28,4.09-4.97,9.4-9.46,9.4c-7.43,0-12.31-15.49-24.07-15.49
    c-11.76,0-16.64,15.49-24.07,15.49c-4.43,0-7.11-5.16-9.37-9.23l-12.64,26.84c-0.79,1.67-3.23,6.65-3.26,6.71
    c13.84,10.11,30.89,16.08,49.33,16.08c18.45,0,35.5-5.97,49.33-16.08C133.03,144.46,130.72,139.4,129.93,137.73z"/>
  <polygon class="st1" points="42.14,128.33 40.09,132.68 40.09,132.68 				"/>
  <polygon class="st1" points="42.14,128.33 40.09,132.68 40.09,132.68 				"/>
  <polygon class="st2" points="96.62,66.99 83.82,39.81 71.02,66.99 			"/>
  <path class="st1" d="M96.62,66.99h-25.6L50.3,111c2.26,4.07,4.94,9.23,9.37,9.23c7.43,0,12.31-15.49,24.07-15.49
    c11.76,0,16.64,15.49,24.07,15.49c4.5,0,7.19-5.3,9.46-9.4L96.62,66.99z"/>
  <path d="M287.57,143.38c-9.27,4.35-19.21,6.55-29.53,6.55c-16.95,0-33.28-6.16-45.99-17.35c-13.68-12.04-22.04-28.92-23.43-46.94
    h94.4c2.95,0,5.34-2.39,5.34-5.34c0-2.95-2.39-5.34-5.34-5.34h-94.41c2.74-35.91,32.83-64.29,69.42-64.29
    c10.32,0,20.25,2.21,29.53,6.56c2.67,1.25,5.85,0.1,7.1-2.57c1.25-2.67,0.1-5.85-2.57-7.1C281.4,2.55,269.93,0,258.04,0
    c-44.28,0-80.31,36.03-80.31,80.31c0,23.07,9.94,45.04,27.26,60.3c14.66,12.91,33.5,20.02,53.05,20.02
    c11.9,0,23.36-2.55,34.07-7.57c2.67-1.25,3.82-4.43,2.57-7.1C293.42,143.28,290.24,142.13,287.57,143.38z"/>
  <path d="M365.84,11.45c13.4,0,26.39,3.85,37.56,11.13c10.9,7.11,19.53,17.08,24.98,28.86c0.29,0.62,0.18,1.18,0.03,1.53
    c-0.15,0.36-0.46,0.84-1.12,1.1l-10.95,4.22l-30.25,11.65c-4.42,1.7-7.33,5.95-7.33,10.68c0,4.73,2.92,8.98,7.33,10.68
    l30.25,11.65l10.72,4.13c0.66,0.25,0.97,0.74,1.11,1.1c0.14,0.36,0.25,0.93-0.05,1.56c-4.01,8.49-9.63,15.96-16.69,22.21
    c-12.58,11.13-28.78,17.25-45.59,17.25c-14.24,0-27.7-4.22-39.22-12.25V23.7C338.14,15.66,351.59,11.45,365.84,11.45 M365.84,0
    c-19.21,0-36.85,6.75-50.67,18v124.62c13.82,11.25,31.46,18,50.67,18c20.39,0,39.01-7.6,53.18-20.13
    c8.12-7.18,14.77-15.98,19.46-25.89c3.33-7.04-0.03-15.44-7.3-18.24l-10.72-4.13L390.2,80.61l30.25-11.65l10.95-4.22
    c7.22-2.78,10.61-11.09,7.36-18.12C426.02,19.1,398.16,0,365.84,0L365.84,0z"/>
	<rect x="7.99" y="170.03" class="st0" width="430.48" height="45.84"/>
  <path class="st3" d="M155.76,177.99h3.29v29.9h-2.69l-19.31-24.52v24.52h-3.29v-29.9h3.16l18.84,23.96V177.99z"/>
  <path class="st3" d="M204.12,198.82c-0.74,1.87-1.78,3.51-3.12,4.93c-1.34,1.42-2.95,2.56-4.83,3.4
    c-1.88,0.84-3.96,1.26-6.24,1.26c-2.28,0-4.35-0.41-6.22-1.24c-1.87-0.83-3.47-1.94-4.81-3.35c-1.34-1.41-2.37-3.05-3.1-4.91
    c-0.73-1.86-1.09-3.84-1.09-5.92c0-2.08,0.37-4.05,1.11-5.92c0.74-1.86,1.78-3.51,3.12-4.93c1.34-1.42,2.95-2.56,4.83-3.4
    c1.88-0.84,3.96-1.26,6.24-1.26c2.28,0,4.35,0.41,6.22,1.24c1.86,0.83,3.47,1.94,4.81,3.35c1.34,1.41,2.37,3.05,3.1,4.91
    c0.73,1.87,1.09,3.84,1.09,5.92C205.23,194.98,204.86,196.95,204.12,198.82z M200.85,188.16c-0.58-1.51-1.4-2.82-2.46-3.93
    c-1.05-1.11-2.3-1.99-3.74-2.65c-1.44-0.65-3.01-0.98-4.72-0.98c-1.71,0-3.28,0.32-4.72,0.96c-1.44,0.64-2.67,1.52-3.7,2.63
    c-1.03,1.11-1.83,2.41-2.41,3.91c-0.58,1.5-0.88,3.1-0.88,4.81c0,1.71,0.29,3.32,0.88,4.83c0.58,1.51,1.4,2.82,2.46,3.93
    c1.05,1.11,2.3,1.99,3.74,2.65c1.44,0.66,3.01,0.98,4.72,0.98c1.71,0,3.28-0.32,4.72-0.96c1.44-0.64,2.67-1.52,3.69-2.63
    c1.03-1.11,1.83-2.41,2.41-3.91c0.58-1.5,0.88-3.1,0.88-4.81C201.72,191.28,201.43,189.67,200.85,188.16z"/>
  <path class="st3" d="M230.13,207.9h-3.37v-26.78h-10.04v-3.12h23.45v3.12h-10.04V207.9z"/>
  <path class="st3" d="M276.69,181.07h-18.24v10.21h16.32v3.08h-16.32v10.47h18.45v3.08h-21.83v-29.9h21.61V181.07z"/>
  <path class="st3" d="M295.19,187.36c0.23,0.57,0.64,1.09,1.24,1.56c0.6,0.47,1.42,0.9,2.48,1.28c1.05,0.39,2.41,0.75,4.06,1.09
    c3.33,0.74,5.79,1.77,7.37,3.08c1.58,1.31,2.37,3.12,2.37,5.43c0,1.28-0.25,2.45-0.76,3.51c-0.51,1.06-1.2,1.95-2.09,2.7
    c-0.89,0.74-1.96,1.31-3.21,1.71c-1.25,0.4-2.62,0.6-4.1,0.6c-2.39,0-4.58-0.39-6.56-1.16c-1.98-0.77-3.87-1.97-5.66-3.58
    l2.09-2.48c1.57,1.42,3.15,2.48,4.74,3.18c1.59,0.7,3.43,1.05,5.51,1.05c2.02,0,3.64-0.47,4.85-1.41
    c1.21-0.94,1.82-2.18,1.82-3.72c0-0.71-0.11-1.35-0.34-1.9c-0.23-0.56-0.63-1.06-1.2-1.52c-0.57-0.46-1.36-0.87-2.38-1.24
    c-1.01-0.37-2.31-0.73-3.88-1.07c-1.71-0.37-3.2-0.8-4.47-1.28c-1.27-0.48-2.32-1.07-3.15-1.75c-0.83-0.68-1.44-1.48-1.84-2.4
    c-0.4-0.91-0.6-2-0.6-3.25c0-1.2,0.24-2.3,0.73-3.29c0.48-1,1.17-1.86,2.05-2.59c0.88-0.73,1.92-1.3,3.12-1.71
    c1.2-0.41,2.51-0.62,3.93-0.62c2.19,0,4.11,0.3,5.75,0.91c1.64,0.6,3.23,1.51,4.76,2.73l-1.96,2.61c-1.4-1.14-2.8-1.96-4.21-2.48
    c-1.41-0.51-2.88-0.77-4.42-0.77c-0.97,0-1.84,0.13-2.63,0.39c-0.78,0.26-1.45,0.6-2.01,1.03c-0.56,0.43-0.98,0.94-1.28,1.54
    c-0.3,0.6-0.45,1.24-0.45,1.92C294.84,186.15,294.96,186.79,295.19,187.36z"/>
  <rect x="15.65" y="205.29" class="st1" width="112.05" height="2.61"/>
  <rect x="318.77" y="205.29" class="st1" width="112.05" height="2.61"/>
</svg>
