<!-- Generator: Adobe Illustrator 23.0.1, SVG Export Plug-In  -->
<svg version="1.1" xmlns="http://www.w3.org/2000/svg" xmlns:xlink="http://www.w3.org/1999/xlink" viewBox="0 0 734.74 578.3" xml:space="preserve">
<style type="text/css">
	.st0{fill:#FFFFFF;}
	.st1{fill:#7E2C17;}
	.st2{fill:#F5F5F5;}
	.st3{fill:#511911;}
	.st4{fill:#341B1E;}
	.st5{fill:#712215;}
	.st6{fill:#8E0404;}
	.st7{fill:#A6A6A6;}
	.st8{fill:#FE8102;}
	.st9{opacity:0.2;fill:url(#SVGID_1_);}
	.st10{opacity:0.65;}
	.st11{fill:#FF961E;}
	.st12{opacity:0.2;fill:url(#SVGID_2_);}
</style>
<defs>
</defs>
<path class="st0" d="M604.21,189.63c-26.01,16.63-56.44,24.78-73.01,24.55c-17.44,27.4-42.26,48.48-70.3,63.84
	c0.21,0.44,0.4,0.87,0.58,1.28c-0.91,5.14-0.91,6.85-28.03,29.1c-37.69,30.92-42.51,100.43-98.44,169.48
	c-14.84-13.12-46.22-43.37-62.77-64.48c-2.1-2.68-4.94-5.97-8.31-9.68c-10.03,20.75-28.61,37.91-49.66,45.41
	c4.47,8.4,9.69,17.4,15.89,27.04c37.62,58.52,61.55,62.52,94.58,89.88c17.55,14.53,38.23,19.58,53.5-4.28
	c6.85-10.7,42.37-44.51,65.05-92.44c12.07-25.5,21.26-49.65,23.54-69.62c3.99,23.4,21.11,54.78,53.64,91.3
	c32.53,36.52,101.29,31.39,131.25,37.38c14.48,2.9,34.37,9.59,51.04,15.74V177.09C658.35,176,627.99,174.42,604.21,189.63z"/>
<path class="st1" d="M131.53,350.93c-3.18,0-5.83,1.6-7.94,3.72c1.42,1.95,4.36,2.3,7.28,2.22c4.08-0.11,6.32-1.24,9.87-1.12
	C138.51,353.1,135.57,351.74,131.53,350.93z"/>
<path class="st1" d="M190.63,328.94c-2.57-4.56-12.27-17.69-18.83-21.68c-6.56-3.99-23.4-6.85-34.52-4.28
	c-11.13,2.57-19.69,16.83-29.39,24.54c-9.7,7.7-9.13,15.26-9.13,15.26s19.4-3.42,25.54,0.57c-2.04,4.81-1.94,7.66-0.72,9.34
	c2.12-2.12,4.76-3.72,7.94-3.72c4.04,0.81,6.98,2.17,9.2,4.83c1.17,0.04,2.48,0.22,4.04,0.62c6.31,1.6,13.62,0.21,19.33-0.36
	c25.25,6.5,18.52,35.57,50.16,95.08c21.05-7.5,39.63-24.66,49.66-45.41C240.78,378.23,192.88,332.93,190.63,328.94z"/>
<path class="st2" d="M278.51,421.03c-2.26-2.64-4.37-5.2-6.28-7.64c-2.1-2.68-4.94-5.97-8.31-9.68
	c-10.03,20.75-28.61,37.91-49.66,45.41c3.43,6.45,7.31,13.26,11.74,20.44c5.8-2.92,11.58-6.14,17.28-10.04
	C259.08,449.54,269.06,435.49,278.51,421.03z"/>
<path class="st1" d="M525.89,213.74c-14.55-2.5-54.78-27.18-67.89-46.46c-40.21,4.4-51.88,31.28-41.25,60.32
	c21.97,15.29,39.16,39.01,44.73,51.69c0,0-1.07,14.98,2.07,25.54c3.14,10.56,17.69,20.69,30.24,8.7
	c11.16-10.65,33.02-39.65,36.53-99.37C528.69,214.11,527.2,213.97,525.89,213.74z"/>
<path class="st3" d="M458,167.28c-40.21,4.4-51.88,31.28-41.25,60.32c13.45,9.36,25.1,21.88,33.4,33.09
	c7.83-16.73,10.84-36.45,24.95-42.5c12.05-5.02,32.58,2.68,46.55-5.55C504.69,207.09,469.99,184.93,458,167.28z"/>
<path class="st1" d="M464.2,178.3c1.18,9.04-3.94,18.17-12.58,22.37c-2.1,8.74-7.06,25.34-25.06,37.96
	c-18,12.62-36.27,24.55-47.48,24.22c-11.22-0.34-14.72-9.25-14.97-13.91c-0.25-4.65-4.14-6.05-6.87-6.12
	c-2.73-0.07-6.64-3.23-3.8-6.39c2.84-3.16,3.57-3.97,3.57-3.97s-4.75-0.13-6.85-1.72c-2.1-1.6-3.73-4.66-1.03-8.29
	s3.7-5.68,2.64-8.02c-1.06-2.34-2.65-1.19-5.11-2.36c-2.46-1.17-5.36-4.92-2.75-9.28s7.84-11.11,9.71-14.46s3.83-8.39,2.14-12.67
	c-1.68-4.28-4.53-11.52-5.92-15.06c-1.39-3.54-2.29-24.18,9.24-41.26s49.97-51,90.29-31.8S491.01,164.02,464.2,178.3z"/>
<path class="st4" d="M381.06,165.33c0,0-4.8-4.48-7.23-5.33c-2.43-0.85-10.94-1.49-15.35-0.61c-4.41,0.88-3.11,7.3,3.11,7.9
	C367.06,165.71,372.1,163.06,381.06,165.33z"/>
<path class="st4" d="M358.5,174.87c2.95,1.22,6.46,0.06,7.92-1.3c1.42,0.97,11.16,4.27,14.67,3.6c-4.67,4.97-8.74,8.64-12.5,8.03
	s-5.04-6.29-4.04-7.72C362.49,178.14,358.75,175.86,358.5,174.87z"/>
<path class="st5" d="M358.58,202.2c3.58,1.3,7.56,10.35-1.44,12.82C363.36,210.72,361.43,205.99,358.58,202.2z"/>
<path class="st5" d="M355.88,211.81c-1.26-1.57-6.34-2.71-7.18-1.24c-0.85,1.47,3.08,1.5,3.92,1.09
	C353.45,211.27,354.5,211.21,355.88,211.81z"/>
<g>
	<g>
		<path class="st6" d="M353.44,236.43c1.58-1.76,2.51-2.79,3.02-3.35c2.32-0.34,5.87-0.77,8.94-0.49
			c-1.82,2.07-3.43,9.04-7.21,10.31c0,0,0,0,0,0c-0.33-0.04-0.64-0.07-0.95-0.08C354.51,242.75,350.6,239.59,353.44,236.43z"/>
		<path class="st6" d="M356.17,225.09c3.85,3.47,6.94,5.11,6.94,5.11c-3.73-0.37-6.32,1.06-7.7,2.13c-1.58-0.18-3.93-0.6-5.25-1.6
			c-2.01-1.53-3.58-4.39-1.35-7.81C351.35,222.67,354.24,223.35,356.17,225.09z"/>
	</g>
</g>
<path class="st3" d="M439,173.85c2.54-7.71,5.05-13.25,11.37-11.31c6.32,1.93,8.83,10.49,7.23,14.4c-1.6,3.91-5.46,3.15-6.28,7.6
	c-0.81,4.45,0.11,7.89-2.24,8.36c-2.35,0.47-2.15-2.74-2.25-4.27c-0.1-1.53,1.71-3.21-0.07-4.29s-2.79-3.11,0.15-4.33
	c2.94-1.23,6.2-5.07,5.43-8.48s-3.39-5.86-6.19-4.76c-2.8,1.1-3.79,2.77-3.52,5.44c0.27,2.67,0.41,5.04-0.98,5.66
	C440.25,178.49,437.9,177.18,439,173.85z"/>
<path class="st4" d="M429.06,176.95c0,0-5.43-3.18-7.45-11.7c-2.02-8.52,0.38-14.97-7.55-23.06s-18.02-1.85-24.57-10.29
	c-6.55-8.44-4.1-30.43-21.46-23.26c-2.17-7.35,5.48-16.82,9.9-19.13c4.43-2.31,7.41,0.07,10.94-6.18c2.48-4.39,5.33-8.72,10.86-8.62
	c5.53,0.11,9.29-0.66,14.4-4.88s8.19-3.08,13.9-1.62c5.71,1.46,8.3,1.59,15.82,0.42c7.52-1.17,12.28-1.14,17.5,5.36
	c-0.99-4.93-1.17-7.33,0.71-8.83c-5.97-1.64-10.63-10.45-11.25-15.72c-0.62-5.27,9.66-11.02,10.29-18.11s-4.37-11.58,2.81-14.6
	c7.18-3.01,18.07-2.36,23.78-12.01c5.7-9.65,10.59-2.07,15.3,1.21c4.71,3.28,13.36,5.96,22,0.85s15.92,1.34,20.68,7.64
	c4.76,6.3,8.98,8.82,14.34,12.79c5.36,3.97,11.44,11.21,9.53,18.93c-1.91,7.72-9.42,12.76-4.59,22.64
	c4.84,9.88,3.35,16.02-4.12,18.39c-7.48,2.37-13.6,0.93-19.03,7.06c-5.43,6.13-15.3,13.28-27.89,6.27c3.15,4.03,9,6.58,8.99,12
	s-0.82,5.88,2.65,9.65s5.22,8.21,2.21,13.95c-3.01,5.75,1.71,8.69,1.01,15.14c-0.69,6.45-3.96,6.59-5.3,11.4s3.24,7.75,0.26,12.25
	s-9.13,5.3-11.74,10.51s0.07,9.85-7.26,14.16c-7.33,4.31-16.27,11.05-16.27,11.05s-21.66-28.01-26.98-27.06
	c2.88-8.26,1.45-28.22-14.47-27.37S428.06,166.56,429.06,176.95z"/>
<g>
	<g>
		<path class="st0" d="M440.08,221.89c4.78,12.15,17.83,18.4,29.14,13.95c11.32-4.45,16.61-17.91,11.84-30.06
			c-4.78-12.15-17.83-18.4-29.14-13.95C440.59,196.28,435.3,209.74,440.08,221.89z M443.95,220.25c-3.85-9.78,0.42-20.61,9.52-24.19
			c9.11-3.58,19.61,1.44,23.45,11.22c3.85,9.78-0.42,20.61-9.52,24.19C458.29,235.06,447.79,230.03,443.95,220.25z"/>
	</g>
	<g>
		<path class="st0" d="M447.19,218.74c3.03,7.7,11.29,11.66,18.46,8.84c7.17-2.82,10.53-11.35,7.5-19.04
			c-3.03-7.7-11.29-11.66-18.46-8.84S444.16,211.05,447.19,218.74z M449.45,216.99c-2.27-5.77,0.25-12.16,5.62-14.27
			c5.37-2.11,11.57,0.85,13.84,6.62s-0.25,12.16-5.62,14.27C457.91,225.73,451.72,222.76,449.45,216.99z"/>
	</g>
	<g>

			<ellipse transform="matrix(0.9306 -0.366 0.366 0.9306 -45.5239 182.2652)" class="st0" cx="458" cy="211.21" rx="4.7" ry="5.05"/>
	</g>
</g>
<path class="st7" d="M466.82,399.7c2.66,15.58,11.15,34.71,26.13,56.54c-18.46-38.71-21.23-34.29-24.14-89.71
	c-8.2,44.31-15.69,57.42-16.52,82.59C459.78,431.16,465.15,414.31,466.82,399.7z"/>
<g>
	<path class="st0" d="M202.04,276.69l-0.56,0.33L99.9,337.94l-0.3,0.18l-0.22,0.27l-16.05,19.83l-3.44,4.25l5.37-1.02l22.23-4.24
		l0.36-0.07l0.31-0.19l98.89-60.29l0.16-0.1l0.14-0.13c0.32-0.29,7.84-7.17,4.58-13.34c-3.05-5.75-8.97-6.33-9.22-6.35
		L202.04,276.69L202.04,276.69z"/>
</g>
<path class="st8" d="M82.4,361.32l16.44-20.31l104.06-62.4c0,0,5.18,0.45,7.81,5.43c2.63,4.98-4.25,11.18-4.25,11.18l-101.29,61.76
	L82.4,361.32z"/>
<polygon class="st0" points="82.4,361.32 98.84,341.01 105.17,356.98 "/>
<polygon class="st4" points="82.4,361.32 88.56,353.71 93.78,359.15 "/>
<path class="st4" d="M81.98,339.89c-0.08-2.35-0.84-4.63-2.11-6.53c-1.28-1.9-2.98-3.49-4.92-4.67c-3.88-2.35-8.58-3.31-12.93-2.57
	c-4.38,0.71-8.21,3.33-10.42,7.05c-2.25,3.72-3.01,8.23-3.09,12.69l-0.1,5.71l-3.16-4.85c-3.06-4.7-7.98-8.25-13.31-10
	c-2.68-0.87-5.48-1.32-8.28-1.28c-2.8,0.05-5.59,0.56-8.24,1.51c-1.32,0.45-2.65,1.05-3.87,1.68c-1.2,0.64-2.31,1.39-3.26,2.26
	c-1.9,1.73-3.11,3.93-3.37,6.39c-0.28,2.46,0.33,5.11,1.46,7.59c1.13,2.49,2.76,4.82,4.65,6.95c1.9,2.12,4.05,4.05,6.36,5.8
	c1.16,0.87,2.36,1.69,3.59,2.46c1.21,0.77,2.52,1.48,3.85,2.22c5.27,2.93,10.72,5.66,16.08,8.72c5.32,3.1,10.68,6.43,15.27,10.99
	c2.27,2.28,4.33,4.93,5.72,8c0.7,1.53,1.19,3.16,1.52,4.8c0.32,1.66,0.39,3.34,0.35,5l-3.49-1.15c2.67-3.66,5.17-7.42,7.52-11.26
	c2.34-3.85,4.42-7.85,6.25-11.98c1.85-4.12,3.38-8.39,4.74-12.73c1.34-4.34,2.49-8.76,3.51-13.22c-0.52,4.54-1.22,9.08-2.2,13.57
	c-0.97,4.49-2.26,8.93-3.82,13.28c-1.58,4.34-3.52,8.57-5.68,12.66c-2.15,4.1-4.62,8.02-7.16,11.86l-3.4,5.15l-0.09-6.3
	c-0.02-1.38-0.12-2.75-0.43-4.08c-0.32-1.32-0.75-2.62-1.37-3.84c-1.23-2.45-2.96-4.68-5.04-6.65c-4.15-3.97-9.29-7.06-14.54-9.96
	c-5.26-2.91-10.71-5.63-16.11-8.57c-5.48-2.87-10.92-6.61-15.16-11.49c-2.13-2.44-4.02-5.16-5.4-8.23
	c-1.36-3.05-2.22-6.54-1.8-10.16c0.21-1.8,0.77-3.59,1.64-5.19c0.87-1.61,2.05-3.02,3.37-4.18c1.33-1.16,2.78-2.1,4.29-2.85
	c1.5-0.73,2.97-1.36,4.54-1.86c3.1-1.04,6.4-1.57,9.69-1.56c3.29,0.03,6.58,0.59,9.66,1.73c6.13,2.28,11.52,6.44,14.94,12.08
	l-3.26,0.86c0.24-4.86,1.36-9.9,4.19-14.14c1.41-2.1,3.28-3.93,5.45-5.24c2.17-1.32,4.63-2.08,7.1-2.35
	c4.95-0.53,9.95,0.85,13.88,3.68c1.96,1.41,3.66,3.22,4.81,5.33C81.55,335.14,82.11,337.55,81.98,339.89z"/>
<g>
	<path class="st2" d="M702.76,327.64V177.09c-17.1-0.42-32.13-0.91-45.5-0.49c-11.7,21.75-14.45,60.28,13.85,91.28
		C676.77,287.16,692.2,306.76,702.76,327.64z"/>
	<path class="st2" d="M702.76,398.93c-2.68,4.14-5.92,8.34-9.82,12.61c-43.03,47.2-98.85,76.16-114.03,108.13
		c27.67,5.47,56.2,5.39,72.8,8.71c14.48,2.9,34.37,9.59,51.04,15.74V398.93z"/>
</g>
<path class="st7" d="M702.76,287.3c-26.1-15.96-50.11-33.5-56.75-38.25c20.33,21.23,40.17,40.19,56.75,55.38V287.3z"/>
<linearGradient id="SVGID_1_" gradientUnits="userSpaceOnUse" x1="700.3693" y1="360.5386" x2="661.4893" y2="359.4586">
	<stop  offset="0" style="stop-color:#000000"/>
	<stop  offset="0.7035" style="stop-color:#FFFFFF"/>
</linearGradient>
<path class="st9" d="M625.08,180.65v344.67c10.38,0.87,19.58,1.66,26.64,3.07c14.48,2.9,34.37,9.59,51.04,15.74V177.09
	C670.35,176.3,645.43,175.25,625.08,180.65z"/>
<path class="st10" d="M672.36,123.88c-1.43,4.76,1.19,9.77,5.87,11.33c-4.1-0.19-7.97,2.41-9.2,6.52v0
	c-1.46,4.85,1.3,9.96,6.15,11.42l0.33,0.1c-3.98-0.05-7.68,2.53-8.88,6.53v0c-1.46,4.85,1.3,9.96,6.15,11.42l2.58,0.77
	c-4.85-1.46-9.96,1.3-11.42,6.15v0c-1.46,4.85,1.3,9.96,6.15,11.42l40.86,12.27c4.85,1.46,9.96-1.3,11.42-6.15v0
	c1.46-4.85-1.3-9.96-6.15-11.42l6.73,2.02c4.85,1.46,9.96-1.3,11.42-6.15v0c1.46-4.85-1.3-9.96-6.15-11.42l-3.39-1.02
	c3.98,0.05,7.68-2.53,8.88-6.53v0c1.46-4.85-1.3-9.96-6.15-11.42l-9.82-2.95c4.09,0.18,7.94-2.42,9.17-6.53
	c1.46-4.85-1.3-9.96-6.15-11.42l-36.97-11.1C678.93,116.28,673.82,119.03,672.36,123.88z"/>
<path class="st1" d="M669.36,120.88c-1.43,4.76,1.19,9.77,5.87,11.33c-4.1-0.19-7.97,2.41-9.2,6.52v0
	c-1.46,4.85,1.3,9.96,6.15,11.42l0.33,0.1c-3.98-0.05-7.68,2.53-8.88,6.53v0c-1.46,4.85,1.3,9.96,6.15,11.42l2.58,0.77
	c-4.85-1.46-9.96,1.3-11.42,6.15v0c-1.46,4.85,1.3,9.96,6.15,11.42l40.86,12.27c4.85,1.46,9.96-1.3,11.42-6.15v0
	c1.46-4.85-1.3-9.96-6.15-11.42l6.73,2.02c4.85,1.46,9.96-1.3,11.42-6.15v0c1.46-4.85-1.3-9.96-6.15-11.42l-3.39-1.02
	c3.98,0.05,7.68-2.53,8.88-6.53v0c1.46-4.85-1.3-9.96-6.15-11.42l-9.82-2.95c4.09,0.18,7.94-2.42,9.17-6.53
	c1.46-4.85-1.3-9.96-6.15-11.42l-36.97-11.1C675.93,113.28,670.82,116.03,669.36,120.88z"/>
<g>
	<path class="st11" d="M562.46,408.2c-17.56,29.82-41.5,20.71-51.6-1.86c-0.53-1.18-1.02-2.4-1.48-3.64
		c-5.66-15.83-4.79-36.2,0.72-51.21c5.45-14.86,16.48-27.5,29.22-28.79l-3.67,9.8c-10.53-0.55-20.28,10.68-24.55,24.48
		c-4.12,13.31-3.62,30.54,2.6,41.84c8.18,14.86,24.53,17.18,35.86-3.47c1.09-1.98,2.06-4.11,2.92-6.36l-5.4-4.73l-8.74-7.65
		l-3.51-3.07l-1.03,2.53c-0.34,0.84-0.72,1.64-1.13,2.39c-3.69,6.78-9.1,8.2-12.88,4.38c-0.74-0.75-1.4-1.67-1.96-2.75
		c-2.39-4.56-2.73-11.49-1.06-17.48c0.36-1.3,0.81-2.55,1.33-3.72c2.48-5.55,6.65-8.87,10.58-7.8c0.93,0.25,1.83,0.73,2.65,1.44
		l1.82-4.77c-0.88-0.59-1.81-1-2.77-1.22c-5.32-1.22-10.83,3.51-13.94,10.9c-0.48,1.14-0.9,2.34-1.27,3.58
		c-2.64,9.15-1.59,20.24,3.16,25.9c4.94,5.89,12.58,4.58,17.78-4.99l8.32,8.28c-8.93,16.71-22.1,16.28-29.25,4.7
		c-0.62-1.01-1.19-2.08-1.71-3.22c-4.27-9.39-4.42-22.73-1.12-33.47c0.35-1.14,0.73-2.25,1.15-3.33
		c4.69-12.09,14.25-20.4,23.34-16.86l1.91-5.03l3.93-10.33l2.04-5.36c-1.19,0.02-2.37,0.12-3.53,0.3
		c-14.47,2.21-26.61,16.8-32.41,33.16c-0.34,0.97-0.67,1.94-0.98,2.93c-4.87,15.61-5.39,36,0.22,52.54c0.43,1.27,0.9,2.53,1.4,3.77
		c10.99,26.99,39.52,41.54,61.38,6.55c1.52-2.45,2.92-5.08,4.19-7.86l-8.92-7.8L562.46,408.2z"/>
</g>
</svg>
